<?xml version="1.0" encoding="utf-8"?>
<!-- Generator: Adobe Illustrator 16.0.0, SVG Export Plug-In . SVG Version: 6.00 Build 0)  -->
<!DOCTYPE svg PUBLIC "-//W3C//DTD SVG 1.1//EN" "http://www.w3.org/Graphics/SVG/1.1/DTD/svg11.dtd">
<svg version="1.1" xmlns="http://www.w3.org/2000/svg" xmlns:xlink="http://www.w3.org/1999/xlink" x="0px" y="0px" width="128px"
	 height="128px" viewBox="0 0 128 128" enable-background="new 0 0 128 128" xml:space="preserve">
<g id="Layer_2">
	<circle fill="#488ECC" cx="64" cy="64" r="64"/>
</g>
<g id="Layer_1">
	<path id="path2248" fill="#FFFFFF" d="M98.391,112.508c-0.131-0.068-0.275-0.179-0.319-0.246c-0.043-0.066-0.159-0.204-0.255-0.305
		c-0.29-0.303-0.903-0.992-1.173-1.318c-0.617-0.748-1.485-1.739-2.307-2.631c-0.214-0.231-0.412-0.462-0.439-0.513
		c-0.028-0.05-0.231-0.293-0.452-0.54c-0.222-0.247-0.429-0.499-0.461-0.559c-0.032-0.061-0.111-0.138-0.174-0.173
		c-0.114-0.063-0.252-0.081-1.496-0.193c-0.33-0.029-0.675-0.075-0.767-0.104c-0.093-0.027-0.516-0.066-0.938-0.085l-0.769-0.034
		l-0.292,0.226c-0.378,0.292-0.68,0.542-0.949,0.786c-0.426,0.386-0.87,0.758-1.415,1.184c-0.164,0.13-0.432,0.348-0.592,0.486
		c-0.161,0.139-0.387,0.332-0.501,0.43c-0.114,0.099-0.291,0.25-0.391,0.337c-0.191,0.165-0.505,0.422-1.041,0.856
		c-0.529,0.427-0.851,0.697-1.016,0.856c-0.086,0.081-0.26,0.2-0.385,0.264l-0.229,0.113l-0.292-0.142
		c-0.16-0.077-0.339-0.185-0.396-0.236s-0.222-0.146-0.364-0.208c-0.143-0.063-0.319-0.168-0.392-0.234
		c-0.071-0.067-0.232-0.159-0.356-0.202c-0.125-0.044-0.307-0.151-0.405-0.237c-0.098-0.086-0.207-0.156-0.243-0.156
		s-0.227-0.105-0.423-0.234c-0.196-0.128-0.388-0.234-0.426-0.234c-0.037,0-0.148-0.07-0.246-0.156s-0.275-0.19-0.394-0.232
		c-0.119-0.042-0.345-0.187-0.501-0.322c-0.337-0.291-0.346-0.348-0.156-0.974c0.07-0.233,0.165-0.74,0.209-1.127
		c0.045-0.387,0.139-0.901,0.209-1.146c0.071-0.244,0.164-0.759,0.208-1.146c0.045-0.387,0.138-0.904,0.208-1.15
		s0.164-0.761,0.209-1.146c0.044-0.384,0.137-0.897,0.207-1.141c0.229-0.806,0.233-0.768-0.102-1.327
		c-0.162-0.272-0.313-0.496-0.336-0.496c-0.021,0-0.102-0.113-0.177-0.253c-0.077-0.14-0.177-0.285-0.221-0.322
		c-0.046-0.038-0.138-0.176-0.204-0.307s-0.182-0.294-0.257-0.363c-0.074-0.069-0.135-0.155-0.135-0.189
		c0-0.126-0.595-0.854-0.763-0.934c-0.093-0.045-0.441-0.116-0.776-0.16c-0.334-0.044-0.79-0.138-1.013-0.208
		c-0.225-0.071-0.682-0.165-1.017-0.209c-0.334-0.044-0.794-0.138-1.021-0.21c-0.227-0.071-0.684-0.164-1.015-0.205
		s-0.793-0.135-1.026-0.208c-0.232-0.074-0.697-0.168-1.031-0.209c-0.664-0.082-1.221-0.232-1.4-0.378
		c-0.092-0.074-0.122-0.173-0.156-0.507c-0.052-0.518-0.088-0.729-0.211-1.225c-0.054-0.216-0.135-0.802-0.18-1.302
		c-0.048-0.521-0.137-1.123-0.21-1.412c-0.07-0.277-0.128-0.596-0.128-0.709c0-0.188,0.024-0.222,0.297-0.426
		c0.163-0.122,0.388-0.254,0.499-0.293c0.112-0.039,0.271-0.129,0.354-0.198c0.082-0.068,0.265-0.165,0.406-0.211
		c0.141-0.046,0.296-0.131,0.347-0.186c0.05-0.056,0.223-0.15,0.384-0.21c0.16-0.06,0.339-0.153,0.396-0.207
		s0.243-0.159,0.412-0.234c0.17-0.074,0.364-0.18,0.433-0.233s0.211-0.126,0.316-0.16c0.105-0.035,0.261-0.111,0.344-0.172
		c0.153-0.111,0.587-0.344,1.255-0.672c0.201-0.1,0.396-0.217,0.434-0.262c0.038-0.046,0.185-0.12,0.327-0.168
		c0.142-0.047,0.323-0.141,0.404-0.208c0.079-0.068,0.272-0.171,0.428-0.23c0.154-0.059,0.39-0.206,0.521-0.327
		c0.211-0.195,0.247-0.26,0.297-0.544c0.03-0.177,0.117-0.45,0.191-0.606c0.074-0.158,0.169-0.464,0.211-0.682
		c0.042-0.217,0.131-0.506,0.199-0.642c0.139-0.278,0.295-0.916,0.295-1.209c0-0.278-0.126-0.654-0.289-0.869
		c-0.077-0.101-0.173-0.288-0.211-0.414c-0.037-0.126-0.127-0.306-0.197-0.398c-0.071-0.093-0.178-0.301-0.238-0.464
		c-0.061-0.161-0.144-0.322-0.185-0.355c-0.041-0.034-0.122-0.19-0.182-0.349c-0.059-0.158-0.163-0.36-0.231-0.451
		c-0.069-0.09-0.173-0.29-0.23-0.443c-0.059-0.153-0.143-0.319-0.188-0.368c-0.044-0.05-0.138-0.233-0.206-0.408
		s-0.183-0.396-0.254-0.49c-0.072-0.095-0.155-0.262-0.185-0.371c-0.03-0.109-0.113-0.278-0.187-0.373
		c-0.073-0.096-0.181-0.303-0.239-0.46c-0.06-0.157-0.141-0.314-0.182-0.349c-0.041-0.033-0.123-0.192-0.183-0.354
		c-0.062-0.16-0.179-0.386-0.263-0.5c-0.242-0.329-0.213-0.463,0.195-0.891c0.191-0.2,0.571-0.61,0.843-0.911
		c0.272-0.3,0.684-0.746,0.914-0.99c0.231-0.244,0.653-0.695,0.939-1.003c0.414-0.444,0.556-0.564,0.701-0.592
		c0.234-0.044,0.56,0.045,0.86,0.235c0.132,0.084,0.326,0.168,0.434,0.188c0.105,0.021,0.314,0.105,0.463,0.189
		c0.147,0.085,0.392,0.19,0.541,0.234s0.359,0.14,0.468,0.21c0.107,0.071,0.329,0.165,0.493,0.208
		c0.163,0.042,0.385,0.137,0.494,0.208c0.108,0.071,0.318,0.161,0.468,0.201c0.149,0.039,0.357,0.129,0.462,0.197
		c0.105,0.07,0.328,0.167,0.495,0.215c0.168,0.049,0.394,0.147,0.503,0.22c0.108,0.072,0.33,0.165,0.494,0.208
		c0.163,0.043,0.383,0.135,0.488,0.205c0.104,0.068,0.312,0.161,0.459,0.205s0.404,0.151,0.571,0.239
		c0.345,0.182,0.495,0.176,0.81-0.033c0.106-0.07,0.318-0.154,0.469-0.186s0.395-0.123,0.541-0.205
		c0.146-0.081,0.417-0.186,0.599-0.233c0.183-0.046,0.419-0.14,0.524-0.21c0.107-0.069,0.306-0.15,0.443-0.181
		c0.137-0.03,0.289-0.066,0.339-0.082c0.125-0.038,0.55-0.693,0.638-0.985c0.04-0.134,0.132-0.332,0.203-0.44
		c0.072-0.108,0.168-0.325,0.213-0.481c0.046-0.156,0.141-0.361,0.211-0.457c0.069-0.095,0.165-0.301,0.21-0.457
		c0.046-0.155,0.14-0.369,0.208-0.474c0.069-0.104,0.16-0.303,0.201-0.442c0.042-0.138,0.135-0.34,0.207-0.448
		s0.168-0.325,0.214-0.481c0.045-0.156,0.14-0.361,0.21-0.457s0.162-0.292,0.205-0.438c0.042-0.146,0.135-0.349,0.206-0.451
		c0.069-0.104,0.165-0.316,0.211-0.474c0.046-0.158,0.141-0.364,0.211-0.46c0.07-0.095,0.165-0.303,0.211-0.464
		c0.09-0.31,0.209-0.471,0.472-0.632c0.147-0.092,0.182-0.094,0.368-0.028c0.136,0.047,0.796,0.101,1.946,0.158
		c0.957,0.047,1.9,0.108,2.094,0.136c0.193,0.028,0.444,0.05,0.558,0.05c0.17,0,0.226,0.029,0.331,0.169
		c0.199,0.263,0.399,0.793,0.484,1.281c0.043,0.244,0.133,0.576,0.201,0.738c0.068,0.161,0.161,0.506,0.205,0.766
		c0.046,0.261,0.143,0.604,0.216,0.766c0.073,0.16,0.167,0.496,0.207,0.746c0.041,0.251,0.131,0.584,0.2,0.741
		c0.071,0.157,0.166,0.505,0.212,0.772c0.046,0.267,0.141,0.614,0.211,0.772s0.164,0.502,0.21,0.765
		c0.138,0.794,0.347,1.062,1.163,1.492c0.137,0.071,0.327,0.191,0.426,0.267c0.098,0.075,0.264,0.163,0.367,0.197
		c0.104,0.033,0.229,0.104,0.277,0.158c0.049,0.053,0.209,0.148,0.357,0.211c0.149,0.063,0.329,0.17,0.4,0.237
		c0.162,0.151,0.522,0.283,0.774,0.283c0.32-0.001,1.096-0.155,1.455-0.291c0.188-0.071,0.566-0.164,0.84-0.208
		c0.273-0.045,0.602-0.126,0.728-0.182c0.127-0.057,0.431-0.139,0.677-0.184s0.669-0.15,0.941-0.233
		c0.272-0.084,0.696-0.188,0.942-0.23s0.614-0.137,0.816-0.207c0.203-0.071,0.576-0.165,0.829-0.208
		c0.252-0.043,0.549-0.119,0.66-0.168c0.197-0.087,0.203-0.086,0.475,0.055c0.206,0.108,0.297,0.194,0.366,0.348
		c0.05,0.112,0.138,0.245,0.194,0.297c0.057,0.051,0.156,0.197,0.222,0.326c0.066,0.13,0.181,0.292,0.255,0.361
		s0.135,0.155,0.135,0.19s0.082,0.161,0.183,0.281c0.1,0.119,0.226,0.315,0.279,0.435c0.053,0.119,0.159,0.274,0.234,0.343
		c0.075,0.07,0.138,0.155,0.138,0.19s0.083,0.165,0.186,0.287c0.104,0.123,0.244,0.336,0.313,0.474
		c0.07,0.139,0.148,0.251,0.175,0.251c0.063,0,0.315,0.538,0.315,0.676c0,0.136-0.172,0.479-0.288,0.575
		c-0.048,0.04-0.167,0.19-0.265,0.335s-0.281,0.402-0.41,0.575c-0.129,0.172-0.275,0.381-0.326,0.464s-0.174,0.245-0.273,0.358
		c-0.101,0.115-0.229,0.283-0.286,0.376c-0.156,0.251-0.393,0.575-0.612,0.839c-0.106,0.129-0.195,0.256-0.195,0.284
		c0,0.026-0.072,0.124-0.161,0.218c-0.089,0.093-0.198,0.239-0.242,0.325c-0.045,0.086-0.159,0.248-0.255,0.36
		s-0.174,0.231-0.174,0.264s-0.073,0.128-0.162,0.212c-0.088,0.084-0.197,0.224-0.241,0.31s-0.159,0.244-0.256,0.351
		c-0.096,0.108-0.175,0.219-0.175,0.244c0,0.027-0.094,0.158-0.209,0.29c-0.114,0.132-0.208,0.265-0.208,0.294
		s-0.071,0.154-0.158,0.275l-0.16,0.223l0.131,0.541c0.071,0.298,0.169,0.945,0.214,1.439c0.13,1.397,0.229,1.692,0.699,2.07
		c0.178,0.144,0.422,0.344,0.541,0.444c0.119,0.103,0.276,0.226,0.349,0.276c0.071,0.05,0.262,0.188,0.423,0.31
		c0.162,0.12,0.394,0.29,0.516,0.376s0.283,0.215,0.356,0.288c0.075,0.073,0.225,0.187,0.332,0.252s0.194,0.139,0.194,0.164
		s0.112,0.109,0.248,0.188c0.136,0.079,0.335,0.214,0.441,0.303c0.106,0.088,0.306,0.247,0.442,0.356
		c0.137,0.108,0.361,0.29,0.499,0.403c0.138,0.114,0.267,0.207,0.287,0.207c0.02,0,0.165,0.104,0.321,0.233
		c0.157,0.129,0.312,0.235,0.343,0.235c0.032,0,0.132,0.081,0.223,0.182c0.092,0.1,0.188,0.183,0.214,0.183
		c0.075,0,0.649,0.518,0.688,0.62c0.052,0.14-0.089,0.794-0.233,1.079c-0.069,0.14-0.166,0.438-0.212,0.667
		c-0.047,0.229-0.145,0.543-0.217,0.699c-0.071,0.158-0.166,0.462-0.211,0.677s-0.136,0.498-0.202,0.629
		c-0.066,0.133-0.161,0.446-0.212,0.7c-0.143,0.717-0.353,0.88-1.104,0.859c-0.633-0.017-2.43,0.065-2.615,0.12
		c-0.196,0.059-1.068,0.104-3.646,0.194l-1.64,0.059l-0.48,0.506c-0.264,0.278-0.669,0.705-0.899,0.948
		c-0.83,0.873-1.105,1.174-1.185,1.29c-0.067,0.101-0.078,0.386-0.071,1.953c0.008,1.86,0.082,5.255,0.137,6.211
		c0.027,0.462,0.02,0.532-0.063,0.603c-0.191,0.163-0.805,0.461-1.114,0.541c-0.176,0.046-0.408,0.14-0.518,0.208
		c-0.108,0.069-0.353,0.161-0.541,0.205s-0.432,0.137-0.538,0.207c-0.107,0.069-0.346,0.166-0.527,0.212
		c-0.183,0.046-0.452,0.15-0.599,0.232c-0.146,0.081-0.36,0.163-0.473,0.184c-0.113,0.02-0.295,0.081-0.401,0.136
		C98.624,112.656,98.682,112.66,98.391,112.508z M93.059,95.65c0.2-0.028,0.481-0.097,0.625-0.152
		c0.143-0.055,0.434-0.134,0.647-0.176c0.22-0.043,0.466-0.13,0.572-0.202c0.103-0.071,0.318-0.178,0.48-0.238
		c0.162-0.06,0.325-0.145,0.361-0.188s0.161-0.129,0.278-0.188c0.272-0.138,1.021-0.797,1.367-1.206
		c0.149-0.176,0.348-0.406,0.441-0.513s0.2-0.278,0.236-0.383c0.035-0.104,0.132-0.266,0.215-0.358
		c0.081-0.094,0.178-0.285,0.212-0.425s0.121-0.339,0.191-0.442c0.091-0.131,0.159-0.354,0.229-0.755
		c0.056-0.313,0.136-0.755,0.18-0.984c0.129-0.683,0.115-0.872-0.176-2.442c-0.065-0.345-0.155-0.651-0.231-0.78
		c-0.067-0.118-0.159-0.331-0.202-0.475c-0.043-0.143-0.156-0.38-0.253-0.526c-0.096-0.146-0.217-0.334-0.267-0.416
		c-0.239-0.392-0.361-0.539-0.857-1.029c-0.661-0.656-0.856-0.817-1.189-0.985c-0.145-0.073-0.293-0.168-0.329-0.212
		s-0.187-0.119-0.336-0.166c-0.147-0.048-0.351-0.143-0.452-0.21c-0.107-0.072-0.386-0.165-0.677-0.226
		c-0.271-0.056-0.599-0.14-0.727-0.185c-0.622-0.222-2.143-0.186-2.771,0.067c-0.075,0.03-0.333,0.093-0.571,0.138
		c-0.267,0.051-0.502,0.131-0.616,0.21c-0.102,0.069-0.29,0.16-0.419,0.198c-0.129,0.039-0.347,0.157-0.484,0.261
		c-0.138,0.105-0.275,0.191-0.306,0.191c-0.029,0-0.143,0.076-0.251,0.169c-0.109,0.094-0.388,0.334-0.621,0.534
		s-0.495,0.476-0.582,0.612c-0.088,0.136-0.179,0.247-0.202,0.247c-0.022,0-0.095,0.088-0.159,0.195
		c-0.064,0.106-0.17,0.254-0.236,0.326s-0.157,0.236-0.202,0.364c-0.045,0.129-0.139,0.315-0.207,0.416
		c-0.068,0.1-0.153,0.3-0.188,0.442c-0.035,0.144-0.132,0.434-0.216,0.645c-0.207,0.523-0.284,1.455-0.208,2.549
		c0.045,0.651,0.076,0.83,0.188,1.084c0.075,0.168,0.169,0.465,0.208,0.66c0.044,0.212,0.119,0.403,0.186,0.475
		c0.062,0.065,0.159,0.245,0.218,0.4c0.058,0.153,0.159,0.339,0.224,0.41s0.18,0.238,0.255,0.371
		c0.136,0.239,1.02,1.161,1.428,1.492c0.116,0.094,0.291,0.209,0.387,0.256c0.096,0.046,0.237,0.137,0.315,0.201
		c0.078,0.063,0.253,0.159,0.39,0.21c0.138,0.052,0.333,0.147,0.434,0.214c0.103,0.065,0.396,0.165,0.652,0.22
		s0.56,0.141,0.674,0.19C91.095,95.7,92.28,95.758,93.059,95.65z M47.013,88.215c-0.068-0.028-0.162-0.149-0.222-0.289
		c-0.057-0.133-0.148-0.299-0.204-0.37c-0.056-0.07-0.14-0.259-0.186-0.42c-0.047-0.16-0.142-0.366-0.212-0.457
		c-0.07-0.092-0.166-0.281-0.213-0.421c-0.048-0.141-0.143-0.34-0.211-0.445c-0.068-0.104-0.159-0.303-0.201-0.442
		c-0.042-0.138-0.132-0.336-0.2-0.439c-0.069-0.104-0.161-0.31-0.205-0.457c-0.044-0.147-0.15-0.368-0.235-0.489
		s-0.18-0.315-0.209-0.431c-0.03-0.115-0.113-0.288-0.185-0.386c-0.072-0.097-0.167-0.304-0.212-0.46s-0.142-0.372-0.213-0.48
		c-0.072-0.109-0.165-0.311-0.206-0.449c-0.042-0.138-0.132-0.333-0.202-0.435c-0.069-0.101-0.175-0.314-0.234-0.475
		c-0.123-0.331-0.255-0.475-0.55-0.597c-0.114-0.048-0.307-0.131-0.428-0.186c-0.122-0.056-0.407-0.135-0.635-0.179
		c-0.228-0.043-0.539-0.135-0.69-0.204c-0.152-0.069-0.476-0.162-0.719-0.208c-0.244-0.045-0.555-0.142-0.691-0.213
		s-0.349-0.144-0.471-0.16c-0.189-0.026-0.247-0.011-0.385,0.106c-0.089,0.075-0.288,0.192-0.44,0.259
		c-0.153,0.068-0.324,0.176-0.381,0.238c-0.056,0.063-0.181,0.147-0.278,0.188c-0.096,0.039-0.246,0.132-0.333,0.205
		c-0.086,0.073-0.243,0.168-0.347,0.212c-0.104,0.043-0.248,0.133-0.319,0.2c-0.072,0.066-0.227,0.171-0.345,0.229
		s-0.282,0.164-0.365,0.233c-0.083,0.068-0.204,0.142-0.271,0.163c-0.066,0.021-0.198,0.105-0.293,0.189
		c-0.095,0.083-0.264,0.188-0.374,0.234c-0.111,0.046-0.255,0.133-0.32,0.193c-0.114,0.104-0.244,0.187-0.845,0.531
		c-0.15,0.086-0.35,0.221-0.443,0.299c-0.093,0.079-0.26,0.181-0.371,0.227c-0.11,0.045-0.26,0.138-0.331,0.205
		c-0.072,0.067-0.212,0.157-0.313,0.198c-0.101,0.042-0.248,0.137-0.326,0.21c-0.171,0.158-0.5,0.267-0.675,0.223
		c-0.069-0.018-0.218-0.104-0.33-0.194c-0.112-0.089-0.286-0.196-0.386-0.238c-0.101-0.041-0.241-0.13-0.313-0.197
		c-0.072-0.066-0.208-0.161-0.304-0.209c-0.095-0.048-0.278-0.168-0.407-0.266c-0.129-0.099-0.264-0.18-0.3-0.18
		s-0.111-0.049-0.165-0.109c-0.055-0.061-0.229-0.175-0.386-0.255c-0.158-0.079-0.329-0.192-0.381-0.249
		c-0.052-0.059-0.169-0.136-0.261-0.172c-0.091-0.037-0.233-0.122-0.316-0.19c-0.083-0.067-0.264-0.181-0.401-0.251
		c-0.339-0.172-0.387-0.345-0.309-1.122c0.056-0.564,0.082-0.722,0.231-1.426c0.042-0.201,0.114-0.786,0.159-1.303
		c0.044-0.515,0.139-1.219,0.21-1.564c0.071-0.345,0.164-1.037,0.206-1.536c0.042-0.5,0.123-1.13,0.178-1.398
		c0.056-0.27,0.087-0.528,0.069-0.573c-0.037-0.098-0.333-0.492-0.51-0.679c-0.387-0.408-1.611-1.82-1.89-2.179
		c-0.095-0.123-0.263-0.269-0.374-0.325c-0.194-0.1-0.33-0.102-4.375-0.102h-4.175l-0.246-0.248
		c-0.187-0.188-0.268-0.321-0.335-0.556c-0.049-0.169-0.146-0.392-0.217-0.494c-0.07-0.104-0.163-0.306-0.206-0.451
		c-0.042-0.146-0.135-0.343-0.206-0.438c-0.07-0.095-0.165-0.301-0.21-0.457s-0.142-0.373-0.213-0.481
		c-0.072-0.108-0.165-0.311-0.207-0.448c-0.042-0.14-0.135-0.342-0.208-0.452c-0.16-0.242-0.308-0.811-0.261-1
		c0.02-0.076,0.11-0.216,0.202-0.312s0.285-0.319,0.428-0.497c0.296-0.368,0.679-0.822,0.925-1.1
		c0.093-0.104,0.262-0.298,0.377-0.43c0.114-0.132,0.29-0.33,0.391-0.44c0.1-0.111,0.299-0.349,0.442-0.53
		c0.283-0.357,0.95-1.151,1.246-1.483c0.189-0.212,0.275-0.311,1.012-1.158c0.273-0.314,0.43-0.541,0.451-0.653
		c0.044-0.237-0.066-1.382-0.183-1.886c-0.102-0.441-0.179-0.955-0.255-1.712c-0.054-0.53-0.127-0.662-0.483-0.871
		c-0.128-0.075-0.294-0.199-0.37-0.274c-0.075-0.076-0.171-0.138-0.213-0.138s-0.183-0.081-0.312-0.18
		c-0.129-0.099-0.326-0.226-0.437-0.283c-0.111-0.056-0.234-0.141-0.273-0.188c-0.039-0.047-0.162-0.132-0.272-0.188
		c-0.111-0.057-0.308-0.184-0.437-0.282c-0.13-0.099-0.265-0.18-0.301-0.18c-0.036,0-0.122-0.062-0.191-0.137
		c-0.069-0.076-0.225-0.182-0.345-0.236c-0.12-0.054-0.285-0.153-0.364-0.22c-0.08-0.067-0.241-0.17-0.357-0.229
		c-0.116-0.059-0.244-0.146-0.283-0.193c-0.04-0.047-0.167-0.133-0.283-0.191c-0.117-0.059-0.27-0.161-0.342-0.228
		c-0.071-0.067-0.213-0.156-0.313-0.198c-0.101-0.042-0.23-0.128-0.286-0.191c-0.057-0.063-0.221-0.167-0.364-0.23
		c-0.143-0.064-0.294-0.157-0.335-0.206c-0.042-0.05-0.184-0.146-0.316-0.214c-0.243-0.122-0.475-0.372-0.54-0.579
		c-0.02-0.062,0.036-0.444,0.125-0.859c0.088-0.412,0.195-1.135,0.238-1.608c0.043-0.472,0.114-1,0.157-1.171
		c0.043-0.172,0.124-0.559,0.179-0.859c0.117-0.648,0.151-0.688,0.674-0.774c0.205-0.034,0.482-0.119,0.616-0.189
		c0.135-0.07,0.442-0.166,0.683-0.211c0.242-0.045,0.546-0.137,0.677-0.204c0.131-0.066,0.438-0.16,0.681-0.208
		c0.244-0.049,0.567-0.146,0.72-0.218c0.152-0.071,0.453-0.163,0.668-0.204c0.215-0.042,0.547-0.143,0.738-0.225
		c0.191-0.083,0.509-0.178,0.706-0.211c0.198-0.033,0.473-0.118,0.612-0.189c0.139-0.07,0.434-0.163,0.655-0.205
		c0.62-0.119,0.718-0.166,1.019-0.491c0.216-0.233,0.301-0.374,0.367-0.612c0.047-0.169,0.145-0.387,0.215-0.483
		c0.071-0.097,0.167-0.303,0.212-0.459c0.045-0.156,0.139-0.369,0.208-0.474s0.159-0.302,0.2-0.438
		c0.041-0.136,0.153-0.37,0.249-0.519c0.163-0.254,0.174-0.3,0.174-0.719c0-0.414-0.013-0.469-0.167-0.718
		c-0.092-0.148-0.204-0.391-0.248-0.54c-0.044-0.149-0.14-0.357-0.213-0.463s-0.165-0.314-0.205-0.463
		c-0.04-0.149-0.128-0.357-0.198-0.462c-0.069-0.104-0.166-0.327-0.214-0.495c-0.048-0.167-0.147-0.393-0.219-0.501
		c-0.072-0.109-0.165-0.311-0.207-0.449c-0.042-0.138-0.132-0.337-0.202-0.442c-0.069-0.104-0.163-0.318-0.208-0.474
		c-0.046-0.156-0.14-0.361-0.21-0.457s-0.165-0.301-0.21-0.457c-0.045-0.156-0.141-0.373-0.213-0.481
		c-0.072-0.109-0.165-0.311-0.206-0.449c-0.042-0.139-0.135-0.34-0.207-0.449c-0.141-0.213-0.249-0.658-0.195-0.807
		c0.018-0.05,0.105-0.165,0.193-0.253c0.088-0.089,0.248-0.265,0.353-0.391c0.106-0.125,0.317-0.376,0.469-0.557
		c0.918-1.093,1.66-1.935,2.129-2.418c0.345-0.355,0.442-0.371,0.916-0.147c0.177,0.084,0.529,0.191,0.781,0.237
		c0.252,0.047,0.584,0.142,0.736,0.211c0.152,0.069,0.477,0.16,0.72,0.203c0.244,0.043,0.571,0.136,0.727,0.208
		c0.156,0.072,0.372,0.144,0.478,0.162c0.428,0.069,0.729,0.148,1.021,0.27c0.169,0.07,0.506,0.163,0.75,0.205
		c0.243,0.042,0.551,0.132,0.684,0.2c0.133,0.067,0.453,0.159,0.712,0.204c0.259,0.044,0.574,0.128,0.701,0.186
		c0.31,0.14,0.496,0.134,0.683-0.023c0.085-0.071,0.187-0.13,0.225-0.13c0.039,0,0.182-0.084,0.317-0.188
		c0.136-0.104,0.32-0.219,0.409-0.256c0.089-0.037,0.208-0.12,0.265-0.184c0.057-0.063,0.202-0.16,0.322-0.214
		c0.121-0.054,0.284-0.153,0.365-0.22c0.08-0.066,0.227-0.162,0.327-0.212c0.101-0.051,0.241-0.145,0.313-0.211
		c0.071-0.065,0.241-0.17,0.376-0.233c0.303-0.141,0.43-0.335,0.508-0.781c0.033-0.186,0.104-0.514,0.157-0.729
		s0.135-0.782,0.181-1.26c0.047-0.479,0.14-1.099,0.208-1.38c0.068-0.281,0.162-0.897,0.208-1.37
		c0.046-0.472,0.143-1.102,0.214-1.398c0.071-0.297,0.153-0.789,0.183-1.093c0.089-0.922,0.137-1,0.701-1.128
		c0.199-0.045,0.526-0.149,0.727-0.23s0.494-0.165,0.651-0.185c0.158-0.021,0.439-0.103,0.625-0.184
		c0.186-0.081,0.548-0.186,0.805-0.234c0.256-0.048,0.58-0.146,0.717-0.219c0.14-0.074,0.424-0.156,0.641-0.188l0.39-0.056
		l0.314,0.336c0.173,0.185,0.402,0.43,0.511,0.544c0.289,0.306,1.721,1.939,1.944,2.219c0.105,0.132,0.316,0.372,0.468,0.533
		c0.152,0.162,0.37,0.403,0.484,0.537c0.22,0.257,0.488,0.556,0.833,0.927c0.114,0.124,0.302,0.335,0.417,0.47
		c0.512,0.604,0.834,0.9,1.042,0.958c0.133,0.037,0.877,0.057,2.063,0.057l1.856,0l0.279-0.233c0.154-0.128,0.397-0.376,0.54-0.551
		c0.36-0.44,1.46-1.704,1.943-2.231c0.22-0.241,0.478-0.522,0.571-0.625c0.349-0.382,1.398-1.599,1.53-1.775
		c0.075-0.1,0.285-0.339,0.467-0.531c0.182-0.192,0.369-0.403,0.416-0.469c0.128-0.18,0.677-0.164,1.139,0.034
		c0.186,0.079,0.526,0.185,0.755,0.234s0.577,0.153,0.774,0.232c0.196,0.079,0.548,0.179,0.781,0.223
		c0.233,0.043,0.534,0.135,0.667,0.203c0.134,0.068,0.411,0.151,0.617,0.185c0.205,0.034,0.418,0.099,0.474,0.145
		c0.074,0.06,0.129,0.233,0.201,0.629c0.055,0.301,0.135,0.687,0.179,0.859c0.043,0.172,0.117,0.699,0.164,1.172
		s0.14,1.094,0.209,1.38c0.068,0.287,0.161,0.896,0.205,1.354c0.044,0.458,0.138,1.079,0.208,1.38
		c0.07,0.301,0.153,0.802,0.184,1.114c0.074,0.739,0.178,0.93,0.625,1.151c0.1,0.05,0.241,0.145,0.312,0.212
		c0.072,0.067,0.218,0.158,0.323,0.202c0.107,0.044,0.271,0.148,0.364,0.23c0.095,0.082,0.226,0.166,0.292,0.187
		c0.067,0.021,0.199,0.106,0.294,0.189s0.256,0.186,0.356,0.229s0.261,0.147,0.356,0.234c0.095,0.086,0.199,0.157,0.231,0.157
		s0.147,0.07,0.256,0.156c0.232,0.185,0.392,0.195,0.763,0.049c0.148-0.059,0.46-0.143,0.69-0.187
		c0.231-0.043,0.586-0.144,0.786-0.223s0.53-0.17,0.733-0.203s0.498-0.118,0.654-0.19c0.157-0.071,0.473-0.163,0.7-0.203
		s0.57-0.135,0.762-0.211c0.189-0.076,0.541-0.175,0.779-0.22c0.237-0.045,0.552-0.137,0.697-0.206
		c0.146-0.068,0.472-0.161,0.725-0.205c0.254-0.044,0.568-0.134,0.698-0.2c0.626-0.313,0.739-0.268,1.437,0.583
		c0.058,0.07,0.19,0.224,0.295,0.341s0.315,0.357,0.469,0.531c0.153,0.174,0.342,0.385,0.42,0.469
		c0.131,0.142,0.569,0.651,1.225,1.426c0.224,0.264,0.273,0.358,0.273,0.518c0,0.263-0.137,0.708-0.289,0.938
		c-0.069,0.104-0.159,0.302-0.2,0.44c-0.042,0.138-0.135,0.34-0.207,0.448c-0.072,0.109-0.167,0.326-0.214,0.482
		c-0.044,0.156-0.14,0.361-0.209,0.457c-0.071,0.095-0.163,0.292-0.205,0.438c-0.043,0.146-0.135,0.348-0.205,0.45
		c-0.07,0.102-0.161,0.303-0.204,0.446c-0.043,0.144-0.149,0.389-0.236,0.544c-0.087,0.155-0.173,0.369-0.193,0.476
		c-0.019,0.107-0.102,0.3-0.184,0.429c-0.082,0.129-0.186,0.36-0.23,0.514c-0.045,0.153-0.139,0.356-0.209,0.452
		c-0.07,0.096-0.162,0.292-0.205,0.438c-0.043,0.146-0.149,0.371-0.236,0.5c-0.219,0.327-0.22,0.673-0.002,0.995
		c0.086,0.125,0.192,0.356,0.239,0.511c0.045,0.155,0.141,0.366,0.21,0.469c0.07,0.103,0.162,0.306,0.205,0.452
		s0.136,0.343,0.206,0.438s0.164,0.297,0.208,0.449c0.044,0.151,0.154,0.4,0.244,0.551c0.092,0.151,0.193,0.323,0.228,0.381
		c0.102,0.172,0.555,0.383,1.003,0.468c0.23,0.044,0.546,0.137,0.699,0.208s0.476,0.166,0.715,0.211
		c0.24,0.045,0.546,0.138,0.679,0.206c0.133,0.067,0.434,0.159,0.667,0.203s0.538,0.138,0.677,0.208
		c0.139,0.07,0.449,0.165,0.69,0.211c0.241,0.045,0.545,0.139,0.676,0.207c0.13,0.068,0.443,0.163,0.697,0.21
		c0.255,0.048,0.571,0.142,0.704,0.209c0.133,0.068,0.334,0.138,0.448,0.158c0.537,0.093,0.589,0.12,0.727,0.394
		c0.166,0.326,0.216,0.591,0.313,1.648c0.043,0.464,0.135,1.109,0.205,1.432c0.145,0.671,0.264,1.696,0.218,1.879
		c-0.051,0.2-0.235,0.396-0.497,0.529c-0.135,0.068-0.278,0.163-0.317,0.21s-0.162,0.132-0.273,0.188
		c-0.11,0.057-0.307,0.184-0.437,0.283c-0.13,0.099-0.269,0.18-0.31,0.18s-0.161,0.082-0.268,0.182
		c-0.105,0.1-0.221,0.182-0.257,0.182c-0.034,0-0.169,0.081-0.298,0.18c-0.129,0.099-0.326,0.226-0.438,0.283
		c-0.11,0.056-0.233,0.141-0.272,0.188c-0.039,0.047-0.162,0.132-0.273,0.188c-0.109,0.056-0.307,0.184-0.437,0.282
		c-0.129,0.099-0.265,0.18-0.301,0.18c-0.035,0-0.121,0.062-0.19,0.138s-0.226,0.182-0.346,0.236
		c-0.12,0.054-0.284,0.153-0.364,0.22s-0.241,0.17-0.357,0.229c-0.116,0.059-0.244,0.146-0.283,0.193s-0.178,0.14-0.309,0.207
		c-0.131,0.066-0.28,0.167-0.33,0.223c-0.052,0.056-0.188,0.145-0.305,0.198c-0.165,0.075-0.241,0.156-0.355,0.384
		c-0.154,0.307-0.22,0.679-0.315,1.8c-0.03,0.344-0.116,0.88-0.189,1.193c-0.191,0.803-0.189,1.057,0.007,1.292
		c0.086,0.103,0.274,0.332,0.417,0.509c0.286,0.354,0.613,0.746,0.895,1.067c0.099,0.115,0.267,0.308,0.372,0.43
		s0.286,0.324,0.4,0.45c0.114,0.126,0.325,0.375,0.468,0.554c0.419,0.521,0.998,1.206,1.584,1.873
		c0.736,0.837,1.039,1.192,1.145,1.343c0.138,0.198,0.155,0.45,0.043,0.667c-0.042,0.083-0.093,0.224-0.112,0.314
		c-0.02,0.09-0.104,0.271-0.187,0.402c-0.083,0.132-0.188,0.365-0.232,0.519s-0.139,0.356-0.209,0.451
		c-0.07,0.097-0.165,0.302-0.21,0.457c-0.046,0.157-0.14,0.37-0.208,0.475c-0.07,0.104-0.16,0.304-0.202,0.441
		c-0.041,0.139-0.132,0.338-0.201,0.442s-0.155,0.283-0.192,0.398c-0.093,0.296-0.187,0.428-0.379,0.532
		c-0.157,0.086-0.479,0.095-4.403,0.119l-4.233,0.025l-0.311,0.339c-0.171,0.187-0.41,0.449-0.531,0.586
		c-0.475,0.534-0.592,0.667-0.778,0.882c-0.107,0.123-0.276,0.317-0.377,0.433c-0.545,0.625-0.711,0.838-0.738,0.946
		c-0.041,0.165,0.125,2.051,0.22,2.493c0.158,0.738,0.183,0.901,0.256,1.768c0.042,0.486,0.134,1.169,0.204,1.518
		c0.123,0.6,0.29,2.126,0.29,2.64c0,0.311-0.081,0.481-0.269,0.559c-0.083,0.035-0.236,0.131-0.341,0.213
		c-0.104,0.084-0.285,0.194-0.401,0.246c-0.117,0.053-0.259,0.147-0.315,0.211c-0.057,0.064-0.175,0.146-0.265,0.184
		c-0.089,0.037-0.272,0.152-0.408,0.256c-0.137,0.104-0.281,0.188-0.321,0.188c-0.041,0-0.15,0.073-0.243,0.161
		c-0.093,0.089-0.248,0.193-0.344,0.234c-0.097,0.04-0.254,0.142-0.349,0.226c-0.096,0.083-0.228,0.168-0.294,0.189
		c-0.066,0.02-0.207,0.114-0.313,0.208c-0.128,0.116-0.267,0.184-0.423,0.207c-0.249,0.037-0.37-0.006-0.628-0.219
		c-0.083-0.068-0.235-0.16-0.339-0.204c-0.104-0.043-0.247-0.135-0.318-0.203c-0.072-0.069-0.216-0.16-0.319-0.203
		c-0.104-0.044-0.257-0.136-0.339-0.204c-0.082-0.069-0.231-0.167-0.331-0.218c-0.102-0.051-0.25-0.149-0.333-0.218
		c-0.082-0.068-0.23-0.159-0.331-0.2c-0.1-0.042-0.26-0.145-0.354-0.228c-0.096-0.084-0.227-0.17-0.294-0.189
		c-0.066-0.021-0.188-0.095-0.271-0.165c-0.083-0.068-0.26-0.181-0.394-0.249s-0.276-0.163-0.317-0.212
		c-0.041-0.05-0.18-0.135-0.309-0.19c-0.129-0.055-0.293-0.155-0.365-0.224s-0.214-0.159-0.317-0.202
		c-0.102-0.043-0.218-0.116-0.257-0.163s-0.189-0.145-0.334-0.218c-0.145-0.073-0.331-0.189-0.413-0.259
		c-0.083-0.069-0.231-0.159-0.33-0.2c-0.1-0.041-0.25-0.134-0.334-0.205c-0.242-0.203-0.458-0.218-0.811-0.056
		c-0.167,0.076-0.553,0.195-0.86,0.263c-0.307,0.068-0.652,0.173-0.768,0.231c-0.116,0.061-0.404,0.146-0.64,0.189
		c-0.236,0.045-0.623,0.165-0.858,0.268c-0.413,0.18-0.437,0.199-0.634,0.529c-0.113,0.189-0.229,0.432-0.257,0.539
		c-0.029,0.108-0.112,0.268-0.185,0.354c-0.073,0.088-0.169,0.28-0.213,0.428c-0.043,0.148-0.137,0.355-0.206,0.46
		c-0.069,0.105-0.164,0.319-0.209,0.476s-0.141,0.363-0.213,0.46c-0.071,0.097-0.154,0.271-0.184,0.386
		c-0.03,0.115-0.132,0.339-0.227,0.496c-0.094,0.157-0.202,0.381-0.239,0.495s-0.12,0.278-0.184,0.364
		c-0.065,0.086-0.156,0.287-0.202,0.447c-0.046,0.16-0.142,0.369-0.212,0.464s-0.166,0.302-0.211,0.46
		c-0.046,0.157-0.141,0.37-0.211,0.473s-0.163,0.304-0.205,0.447c-0.047,0.156-0.169,0.364-0.305,0.521l-0.228,0.261l-2.492,0.011
		C48.183,88.259,47.082,88.243,47.013,88.215z M51.792,64.837c0.186-0.031,0.537-0.113,0.781-0.183s0.607-0.153,0.807-0.184
		c0.201-0.031,0.46-0.112,0.577-0.181c0.117-0.068,0.37-0.16,0.563-0.205c0.192-0.045,0.437-0.141,0.543-0.213
		c0.106-0.073,0.316-0.168,0.467-0.212c0.15-0.044,0.338-0.133,0.417-0.197c0.078-0.065,0.246-0.158,0.374-0.208
		c0.126-0.05,0.299-0.148,0.384-0.219c0.084-0.071,0.238-0.164,0.342-0.208s0.248-0.134,0.319-0.2
		c0.072-0.067,0.203-0.158,0.291-0.203c0.169-0.085,0.471-0.314,0.848-0.644c0.29-0.252,1.581-1.545,1.855-1.856
		c0.406-0.461,0.986-1.26,1.039-1.431c0.021-0.067,0.104-0.197,0.185-0.29c0.082-0.092,0.189-0.272,0.239-0.4
		c0.05-0.127,0.144-0.295,0.208-0.373c0.064-0.078,0.157-0.266,0.206-0.417c0.049-0.151,0.144-0.348,0.21-0.437
		c0.066-0.089,0.158-0.323,0.204-0.52c0.046-0.197,0.143-0.459,0.216-0.584c0.08-0.137,0.161-0.395,0.203-0.652
		c0.038-0.234,0.128-0.577,0.198-0.764c0.081-0.213,0.15-0.551,0.186-0.911c0.098-0.976,0.163-2.212,0.135-2.572
		c-0.015-0.189-0.05-0.695-0.08-1.125c-0.068-0.987-0.125-1.356-0.26-1.66c-0.059-0.133-0.139-0.441-0.178-0.686
		c-0.045-0.277-0.122-0.53-0.206-0.672c-0.073-0.125-0.159-0.353-0.19-0.506s-0.125-0.39-0.208-0.527
		c-0.083-0.137-0.188-0.375-0.232-0.529c-0.045-0.154-0.119-0.312-0.166-0.35s-0.162-0.239-0.257-0.447
		c-0.095-0.208-0.193-0.378-0.219-0.378s-0.109-0.123-0.185-0.273c-0.129-0.258-0.31-0.517-0.641-0.918
		c-0.08-0.097-0.171-0.221-0.201-0.276c-0.174-0.314-1.992-2.13-2.309-2.307c-0.052-0.029-0.174-0.118-0.271-0.199
		c-0.339-0.28-0.75-0.564-0.931-0.641c-0.1-0.042-0.229-0.122-0.287-0.176c-0.058-0.055-0.246-0.161-0.417-0.236
		c-0.172-0.076-0.359-0.18-0.416-0.232c-0.058-0.052-0.232-0.132-0.388-0.178c-0.157-0.046-0.368-0.141-0.469-0.211
		c-0.101-0.07-0.347-0.165-0.545-0.211c-0.198-0.046-0.456-0.139-0.572-0.207c-0.123-0.071-0.409-0.157-0.681-0.204
		c-0.257-0.044-0.603-0.128-0.767-0.186c-0.467-0.164-0.9-0.208-2.383-0.242c-1.707-0.039-2.712,0.026-3.333,0.213
		c-0.244,0.074-0.654,0.17-0.911,0.214c-0.279,0.047-0.557,0.131-0.686,0.207c-0.12,0.07-0.377,0.164-0.573,0.208
		s-0.441,0.141-0.546,0.212c-0.104,0.072-0.304,0.165-0.442,0.207c-0.139,0.042-0.346,0.142-0.46,0.223
		c-0.115,0.082-0.294,0.176-0.4,0.21c-0.105,0.034-0.221,0.098-0.257,0.142c-0.037,0.044-0.197,0.146-0.356,0.227
		c-0.159,0.081-0.346,0.208-0.416,0.282c-0.07,0.074-0.153,0.135-0.186,0.135s-0.152,0.078-0.265,0.172
		c-0.112,0.094-0.278,0.217-0.369,0.273c-0.482,0.298-2.207,2.027-2.413,2.418c-0.038,0.072-0.158,0.233-0.269,0.359
		c-0.11,0.125-0.2,0.256-0.2,0.29s-0.057,0.115-0.126,0.18s-0.195,0.263-0.279,0.439c-0.084,0.177-0.191,0.352-0.236,0.39
		c-0.045,0.038-0.11,0.154-0.145,0.26c-0.035,0.104-0.141,0.305-0.237,0.444c-0.095,0.139-0.174,0.296-0.174,0.348
		c0,0.052-0.083,0.253-0.183,0.446s-0.219,0.505-0.262,0.693c-0.044,0.188-0.128,0.424-0.188,0.524s-0.152,0.424-0.206,0.72
		c-0.053,0.295-0.156,0.752-0.229,1.015c-0.282,1.01-0.285,3.869-0.006,4.931c0.071,0.272,0.168,0.717,0.215,0.989
		c0.047,0.272,0.151,0.647,0.232,0.833c0.081,0.186,0.171,0.456,0.201,0.599c0.03,0.143,0.138,0.42,0.24,0.615
		c0.103,0.196,0.186,0.397,0.186,0.449s0.069,0.18,0.153,0.286c0.085,0.106,0.191,0.307,0.238,0.446
		c0.046,0.139,0.12,0.283,0.165,0.32c0.045,0.037,0.149,0.208,0.232,0.379c0.083,0.171,0.176,0.327,0.206,0.345
		c0.053,0.033,0.219,0.26,0.603,0.831c0.106,0.158,0.254,0.348,0.327,0.424c0.074,0.076,0.24,0.256,0.368,0.402
		c0.571,0.644,1.479,1.506,1.783,1.694c0.093,0.058,0.262,0.183,0.375,0.277c0.113,0.094,0.231,0.171,0.265,0.171
		s0.116,0.062,0.186,0.137c0.069,0.075,0.226,0.18,0.349,0.233c0.123,0.054,0.31,0.165,0.417,0.248
		c0.106,0.083,0.273,0.178,0.371,0.21s0.25,0.114,0.338,0.181c0.089,0.067,0.279,0.161,0.423,0.208
		c0.144,0.047,0.346,0.144,0.449,0.213c0.104,0.07,0.344,0.164,0.537,0.208c0.192,0.044,0.448,0.139,0.568,0.209
		c0.14,0.082,0.396,0.157,0.712,0.207c0.271,0.043,0.692,0.14,0.936,0.214c0.273,0.083,0.663,0.152,1.016,0.18
		C48.604,64.945,51.354,64.909,51.792,64.837z"/>
</g>
</svg>
